HIERARCHY
ROOT Hips
{
	OFFSET -0.001795 -0.223333 0.028219
	CHANNELS 6 Xposition Yposition Zposition Zrotation Yrotation Xrotation 
	JOINT LeftUpLeg
	{
		OFFSET 0.069520 -0.091406 -0.006815
		CHANNELS 3 Zrotation Yrotation Xrotation
		JOINT LeftLeg
		{
			OFFSET 0.034277 -0.375199 -0.004496
			CHANNELS 3 Zrotation Yrotation Xrotation
			JOINT LeftFoot
			{
				OFFSET -0.013596 -0.397961 -0.043693
				CHANNELS 3 Zrotation Yrotation Xrotation
				JOINT LeftToe
				{
					OFFSET 0.026358 -0.055791 0.119288
					CHANNELS 3 Zrotation Yrotation Xrotation
					End Site
					{
						OFFSET 0.000000 0.000000 0.000000
					}
				}
			}
		}
	}
	JOINT RightUpLeg
	{
		OFFSET -0.067670 -0.090522 -0.004320
		CHANNELS 3 Zrotation Yrotation Xrotation
		JOINT RightLeg
		{
			OFFSET -0.038290 -0.382569 -0.008850
			CHANNELS 3 Zrotation Yrotation Xrotation
			JOINT RightFoot
			{
				OFFSET 0.015774 -0.398415 -0.042312
				CHANNELS 3 Zrotation Yrotation Xrotation
				JOINT RightToe
				{
					OFFSET -0.025372 -0.048144 0.123348
					CHANNELS 3 Zrotation Yrotation Xrotation
					End Site
					{
						OFFSET 0.000000 0.000000 0.000000
					}
				}
			}
		}
	}
	JOINT Spine
	{
		OFFSET -0.002533 0.108963 -0.026696
		CHANNELS 3 Zrotation Yrotation Xrotation
		JOINT Spine1
		{
			OFFSET 0.005487 0.135180 0.001092
			CHANNELS 3 Zrotation Yrotation Xrotation
			JOINT Spine2
			{
				OFFSET 0.001457 0.052922 0.025425
				CHANNELS 3 Zrotation Yrotation Xrotation
				JOINT Neck
				{
					OFFSET -0.002778 0.213870 -0.042857
					CHANNELS 3 Zrotation Yrotation Xrotation
					JOINT Head
					{
						OFFSET 0.005152 0.064970 0.051349
						CHANNELS 3 Zrotation Yrotation Xrotation
						End Site
						{
							OFFSET 0.000000 0.000000 0.000000
						}
					}
				}
				JOINT LeftShoulder
				{
					OFFSET 0.078845 0.121749 -0.034090
					CHANNELS 3 Zrotation Yrotation Xrotation
					JOINT LeftArm
					{
						OFFSET 0.090977 0.030469 -0.008868
						CHANNELS 3 Zrotation Yrotation Xrotation
						JOINT LeftForeArm
						{
							OFFSET 0.259612 -0.012772 -0.027456
							CHANNELS 3 Zrotation Yrotation Xrotation
							JOINT LeftHand
							{
								OFFSET 0.249234 0.008986 -0.001171
								CHANNELS 3 Zrotation Yrotation Xrotation
								End Site
								{
									OFFSET 0.000000 0.000000 0.000000
								}
							}
						}
					}
				}
				JOINT RightShoulder
				{
					OFFSET -0.081759 0.118833 -0.038615
					CHANNELS 3 Zrotation Yrotation Xrotation
					JOINT RightArm
					{
						OFFSET -0.096012 0.032551 -0.009143
						CHANNELS 3 Zrotation Yrotation Xrotation
						JOINT RightForeArm
						{
							OFFSET -0.253742 -0.013329 -0.021401
							CHANNELS 3 Zrotation Yrotation Xrotation
							JOINT RightHand
							{
								OFFSET -0.255298 0.007772 -0.005559
								CHANNELS 3 Zrotation Yrotation Xrotation
								End Site
								{
									OFFSET 0.000000 0.000000 0.000000
								}
							}
						}
					}
				}
			}
		}
	}
}
MOTION
Frames: 17
Frame Time: 0.050000
0.000000 0.926062 0.000000 -1.144290 -11.242545 -1.326924 8.776835 0.268150 -20.296152 -9.713700 7.266783 49.490490 9.253347 18.705759 6.480603 0.000000 0.000000 0.000000 4.342372 1.794795 -13.311797 5.769199 -0.119669 20.844367 -7.651661 -17.587459 -3.156078 0.000000 0.000000 0.000000 4.247244 -0.990319 15.609981 -6.191014 1.953788 -22.833323 -1.255135 8.216357 27.613328 7.371938 -3.778338 -17.025511 0.000000 0.000000 0.000000 -17.607737 -7.919364 3.016762 -46.170941 -13.090946 -2.941056 -0.986673 -36.376727 2.166630 0.000000 0.000000 0.000000 24.621048 -2.831076 -2.783692 53.811799 7.029276 -4.795385 9.916328 24.864965 3.258501 0.000000 0.000000 0.000000 
-0.008990 0.928090 0.043714 -1.107619 -12.561796 -1.066995 8.356227 0.366200 -23.794294 -11.005212 6.958472 41.867714 11.248160 21.942530 6.597438 0.000000 0.000000 0.000000 4.593984 1.015942 -8.356526 4.977310 0.029664 18.054515 -7.323124 -16.394731 -3.404239 0.000000 0.000000 0.000000 3.502738 -0.840784 14.996821 -6.005085 1.871510 -23.203012 -0.225550 9.576743 27.377786 5.910193 -2.803269 -15.543054 0.000000 0.000000 0.000000 -18.467627 -7.090773 2.430692 -45.819739 -11.560098 -3.425461 -1.975203 -36.763486 2.475184 0.000000 0.000000 0.000000 23.078594 -3.952059 -3.188695 55.096418 5.190673 -5.615346 11.179373 26.102497 3.762091 0.000000 0.000000 0.000000 
-0.018431 0.928161 0.087609 -0.936693 -12.943233 -1.755497 7.421698 0.178423 -23.980835 -10.986227 5.120161 30.859381 11.539991 22.453517 5.906591 0.000000 0.000000 0.000000 4.084474 0.300293 -3.423246 4.697593 0.023093 16.288299 -6.529438 -14.361787 -3.122179 0.000000 0.000000 0.000000 4.033384 -0.909337 15.441739 -6.890462 2.085425 -24.473153 -0.869235 10.856566 27.783080 5.497607 -2.481668 -14.392926 0.000000 0.000000 0.000000 -18.383711 -6.558656 1.882965 -44.810581 -11.789200 -3.278194 -2.945473 -35.716175 2.587438 0.000000 0.000000 0.000000 22.360892 -4.890886 -3.323573 56.357168 4.738328 -6.028774 10.359098 25.623924 3.601135 0.000000 0.000000 0.000000 
-0.028822 0.929313 0.131993 -0.678045 -14.554708 -2.029353 6.045984 -0.069582 -23.081798 -9.963148 3.462564 20.719471 10.945166 20.818203 10.369142 0.000000 0.000000 0.000000 3.639206 -0.201843 0.583888 4.227849 0.104321 14.793384 -6.555604 -14.128834 -3.064013 0.000000 0.000000 0.000000 3.618044 -0.798424 14.861339 -7.253978 2.153537 -24.248555 -1.631386 12.793292 28.000436 5.329610 -2.520808 -12.027758 0.000000 0.000000 0.000000 -16.976588 -5.235489 1.046149 -44.387044 -12.095800 -3.162013 -5.326904 -35.167934 3.204050 0.000000 0.000000 0.000000 23.471038 -5.436245 -3.483348 54.948820 4.990224 -5.937395 12.126375 25.495914 4.006852 0.000000 0.000000 0.000000 
-0.040824 0.929443 0.176330 -0.925678 -15.539716 -1.711913 4.252842 -0.448333 -22.421118 -7.996554 2.098098 13.261515 10.710713 19.918842 14.100221 0.000000 0.000000 0.000000 3.823045 -0.654407 4.553979 3.208081 0.194615 12.441947 -5.772172 -11.926739 -3.315446 0.000000 0.000000 0.000000 3.093010 -0.691056 13.874670 -7.496411 2.214523 -23.527334 -1.673711 13.654708 27.577648 5.569023 -2.854509 -10.699804 0.000000 0.000000 0.000000 -17.386761 -3.785526 0.184594 -43.592372 -12.523868 -2.920176 -4.026515 -33.703591 2.634487 0.000000 0.000000 0.000000 22.376800 -5.629377 -3.465577 55.755645 4.463778 -6.146252 12.801511 25.461508 4.153387 0.000000 0.000000 0.000000 
-0.054058 0.929908 0.219912 -1.507406 -18.001708 -1.438227 3.735464 -0.458392 -20.088961 -6.270504 1.290020 7.013515 10.253681 18.777158 16.105816 0.000000 0.000000 0.000000 3.677635 -0.831084 6.620732 4.156593 0.058547 11.872650 -4.361864 -8.392857 -3.056933 0.000000 0.000000 0.000000 2.022117 -0.505106 12.407584 -7.288602 2.120214 -22.942127 -1.212225 15.736626 27.106489 5.753079 -3.115180 -9.172211 0.000000 0.000000 0.000000 -16.763903 -2.746124 -0.460090 -43.047843 -12.685395 -2.740086 -3.323250 -32.148565 2.239927 0.000000 0.000000 0.000000 21.645643 -6.820973 -4.001239 56.490703 4.565623 -6.039190 13.403992 23.875987 3.998427 0.000000 0.000000 0.000000 
-0.067780 0.931003 0.261456 -2.493039 -19.724974 -1.711821 3.777110 -0.390517 -16.299647 -4.664209 0.797817 2.580588 9.897185 17.694832 20.644013 0.000000 0.000000 0.000000 3.509069 -0.932329 8.295192 5.321274 -0.006958 13.664757 -4.035619 -9.004432 -0.278823 0.000000 0.000000 0.000000 1.107312 -0.381164 11.862608 -8.010184 2.298037 -22.631501 -1.061243 16.624357 27.389787 6.090208 -3.269830 -9.901436 0.000000 0.000000 0.000000 -15.254549 -3.690775 0.216414 -43.406477 -13.252874 -2.644970 1.074832 -28.244370 0.881028 0.000000 0.000000 0.000000 21.623989 -6.442888 -3.802462 57.695126 5.493264 -5.719528 12.923949 23.680810 3.875314 0.000000 0.000000 0.000000 
-0.080269 0.929732 0.299140 -3.563400 -20.044609 -2.440731 4.380934 -0.256358 -13.626201 -5.145611 0.940793 3.720272 10.233188 18.184380 20.946354 0.000000 0.000000 0.000000 2.763547 -0.758247 7.169141 8.590950 -0.258031 21.882078 -3.734474 -9.637324 2.162698 0.000000 0.000000 0.000000 -0.570025 -0.193157 12.767514 -8.233882 2.366042 -22.402447 -1.674703 14.563121 27.906535 5.472248 -3.033067 -10.131823 0.000000 0.000000 0.000000 -15.632433 -2.933918 0.271606 -40.873458 -14.078502 -2.433197 2.631465 -25.624246 0.536949 0.000000 0.000000 0.000000 21.196091 -5.654588 -3.850026 58.514068 6.642490 -5.198421 13.311188 22.998277 3.725609 0.000000 0.000000 0.000000 
-0.088950 0.929008 0.329345 -4.486440 -20.842685 -2.138270 5.572893 -0.029051 -12.651856 -6.321551 1.325923 5.895899 11.163496 19.846922 17.585705 0.000000 0.000000 0.000000 -0.261508 -0.147599 2.360298 15.301580 -1.618341 31.346059 -4.281434 -12.446507 6.151345 0.000000 0.000000 0.000000 -1.798655 -0.016851 13.683172 -8.424737 2.394845 -22.210547 -2.022493 13.136982 27.371126 4.551788 -2.341438 -11.604002 0.000000 0.000000 0.000000 -15.658148 -4.225280 1.304985 -39.197785 -14.342189 -2.386355 3.370143 -22.909940 0.369957 0.000000 0.000000 0.000000 21.771607 -4.219339 -3.586405 58.374953 6.284551 -5.282209 12.223617 24.255568 3.629176 0.000000 0.000000 0.000000 
-0.093186 0.931635 0.351623 -5.681924 -21.600315 -1.354031 6.746648 0.171014 -11.177625 -7.173729 1.583222 6.413858 12.298484 21.713693 16.345493 0.000000 0.000000 0.000000 -2.034496 0.361678 -3.319066 18.761769 -2.528513 36.256180 -8.969872 -21.613003 8.461841 0.000000 0.000000 0.000000 -1.452140 -0.026127 14.537939 -8.551972 2.440999 -21.481844 -2.401526 11.667854 26.729162 2.891975 -1.310699 -11.392156 0.000000 0.000000 0.000000 -15.540905 -4.558628 1.837571 -38.986695 -14.146027 -2.475533 3.299570 -22.577321 0.431783 0.000000 0.000000 0.000000 20.622623 -2.862960 -3.185231 58.827420 6.415956 -5.107822 10.602756 24.947225 3.291999 0.000000 0.000000 0.000000 
-0.094899 0.936765 0.368874 -6.113400 -22.388185 -0.555193 7.102620 0.230408 -10.311475 -7.550588 1.720446 6.695463 12.823028 22.540714 16.042694 0.000000 0.000000 0.000000 -3.255519 0.635272 -6.302623 17.728966 -2.047818 34.265194 -11.915215 -26.609289 6.723355 0.000000 0.000000 0.000000 -1.223441 -0.053732 14.076863 -8.638099 2.462430 -21.008357 -2.338208 11.380520 26.932036 2.511500 -0.994989 -12.939448 0.000000 0.000000 0.000000 -14.902852 -4.990212 2.220995 -40.428628 -14.100648 -2.551847 3.771852 -22.878119 0.393911 0.000000 0.000000 0.000000 20.224337 -2.209854 -2.977074 59.428671 7.169718 -4.771147 9.119447 25.176570 2.983782 0.000000 0.000000 0.000000 
-0.095804 0.942349 0.382888 -6.687480 -22.424741 0.761053 7.350362 0.237064 -9.275060 -7.224788 1.567876 5.734296 12.761000 22.661939 15.257468 0.000000 0.000000 0.000000 -3.095622 0.769569 -7.819343 13.836779 -1.039301 27.671205 -12.305284 -27.201589 6.015298 0.000000 0.000000 0.000000 -0.689700 -0.133661 13.705117 -8.633636 2.435249 -21.418004 -1.533595 10.952659 27.042406 2.519620 -1.023692 -13.602081 0.000000 0.000000 0.000000 -15.182192 -5.407947 2.555682 -41.120668 -13.882557 -2.653620 3.032313 -24.315031 0.608883 0.000000 0.000000 0.000000 19.969937 -1.641771 -2.774958 59.594162 7.489915 -4.599491 8.032945 25.743613 2.801700 0.000000 0.000000 0.000000 
-0.097013 0.945101 0.394033 -6.860007 -22.101402 1.612429 6.838104 0.140022 -8.279029 -6.343513 1.283307 4.579518 12.887884 23.018458 14.836493 0.000000 0.000000 0.000000 -2.968692 0.809067 -8.212747 10.429988 -0.481917 21.127602 -11.369937 -25.512615 5.510756 0.000000 0.000000 0.000000 -0.480571 -0.166410 13.639834 -8.305255 2.340475 -21.451391 -0.971873 10.646513 27.433348 1.943788 -0.526420 -15.181995 0.000000 0.000000 0.000000 -15.423267 -4.252439 2.027375 -41.995386 -14.275139 -2.577122 2.836724 -26.137681 0.769124 0.000000 0.000000 0.000000 19.920903 -1.565844 -2.784972 59.317134 7.224399 -4.723398 7.757485 26.071064 2.771977 0.000000 0.000000 0.000000 
-0.099039 0.946853 0.402703 -6.755961 -21.658258 2.070081 6.136956 0.041502 -7.145502 -5.411948 1.025409 3.648769 11.863867 21.870187 12.975453 0.000000 0.000000 0.000000 -2.728431 0.823870 -8.363862 7.832941 -0.249387 15.098130 -8.290026 -20.081733 5.412739 0.000000 0.000000 0.000000 -0.317261 -0.176445 14.755762 -8.146384 2.264861 -22.493942 -1.044779 10.649059 27.439755 3.251077 -1.408466 -15.449299 0.000000 0.000000 0.000000 -14.731588 -4.246910 1.962439 -42.773099 -14.016368 -2.674467 2.744471 -26.911275 0.826374 0.000000 0.000000 0.000000 21.275450 -1.455282 -2.824983 58.652558 6.622368 -4.972046 6.753230 27.008080 2.681719 0.000000 0.000000 0.000000 
-0.101518 0.947538 0.408705 -6.287345 -20.101886 2.299966 5.602027 -0.044401 -6.514202 -4.588036 0.804587 2.941252 10.669234 20.223940 11.981046 0.000000 0.000000 0.000000 -2.378242 0.873184 -8.892302 6.610218 -0.235812 11.713195 -6.316240 -16.698508 6.059095 0.000000 0.000000 0.000000 0.103981 -0.262897 15.115450 -8.113866 2.292151 -21.998024 -1.050888 10.529932 26.612113 4.206316 -1.996973 -15.144980 0.000000 0.000000 0.000000 -14.510818 -5.337562 2.294775 -43.810902 -13.397264 -2.765964 1.988649 -28.047851 0.991678 0.000000 0.000000 0.000000 22.944795 -1.461091 -2.798539 57.768514 6.273830 -5.001262 5.456599 27.464334 2.481383 0.000000 0.000000 0.000000 
-0.104095 0.947672 0.412474 -5.207646 -18.043482 2.368068 4.516049 -0.191987 -6.581982 -3.877932 0.636706 2.774516 9.672991 18.687565 12.166516 0.000000 0.000000 0.000000 -2.357796 0.893019 -9.159135 5.736651 -0.224942 9.953256 -5.578918 -15.492673 6.656888 0.000000 0.000000 0.000000 -0.121260 -0.259955 15.544055 -8.111219 2.337269 -21.687341 -0.934875 9.937468 26.592481 5.227514 -2.856742 -13.491431 0.000000 0.000000 0.000000 -14.081606 -6.436075 2.682958 -44.830253 -13.550175 -2.671654 1.872146 -28.184416 0.978704 0.000000 0.000000 0.000000 24.577088 -1.296450 -2.663427 56.488643 6.416860 -4.876491 4.732625 27.087974 2.316102 0.000000 0.000000 0.000000 
-0.106690 0.948012 0.413751 -4.496651 -15.726222 2.436950 4.125604 -0.269341 -6.773086 -3.539599 0.550934 3.021761 9.000696 17.823067 11.455845 0.000000 0.000000 0.000000 -2.254220 0.900391 -9.299211 5.220621 -0.235191 9.038144 -4.758668 -14.088503 7.304936 0.000000 0.000000 0.000000 0.121289 -0.344600 15.725113 -8.032832 2.391021 -20.715171 -0.943775 9.609047 26.291054 5.701641 -3.111843 -13.207858 0.000000 0.000000 0.000000 -12.773328 -7.288932 2.841319 -46.531620 -13.404898 -2.663680 0.708691 -28.877272 1.234842 0.000000 0.000000 0.000000 25.467351 -1.386350 -2.440274 55.831179 6.275934 -4.936712 4.897508 27.084716 2.405675 0.000000 0.000000 0.000000 
